#!OML:ASF \\sashay\E\basketball\basketball\Project 1\Capture day 1\Session 1\Subject.ASF
:FULLY-SPECIFIED
:DEGREES
66
root 22.4494 12.5491 11.714 191.601 -15.4045 -177.687
lowerback 38.0547 4.47629 2.51723
upperback 14.0725 2.11192 -1.80735
thorax -2.90078 -0.429242 -3.84466
lowerneck -10.3333 9.47478 -10.9935
upperneck -30.1914 11.3513 3.22165
head -8.76448 4.69731 2.67195
rclavicle 3.84648e-014 -3.70485e-014
rhumerus 16.6865 -2.69279 -67.4247
rradius 73.5889
rwrist -32.6692
rhand -29.3329 36.4671
rfingers 7.12502
rthumb -2.6732 6.50406
lclavicle 3.84648e-014 -3.70485e-014
lhumerus -21.2172 22.0847 55.451
lradius 72.8289
lwrist 43.3873
lhand -22.6679 20.8793
lfingers 7.12502
lthumb 3.76379 50.8259
rfemur -20.2633 -22.4018 -11.5782
rtibia 48.3356
rfoot -22.3763 -14.8153
rtoes -57.7136
lfemur -72.9638 41.7462 -15.1293
ltibia 75.7615
lfoot -14.2114 6.6443
ltoes -7.21158
67
root 22.2099 12.5396 11.5888 191.826 -16.8389 -177.204
lowerback 37.6943 4.59362 1.967
upperback 13.8835 2.23817 -1.47017
thorax -3.02267 -0.354729 -3.24405
lowerneck -10.1951 8.93259 -11.6869
upperneck -29.7929 10.9918 4.68693
head -8.73199 4.53124 3.30431
rclavicle 1.07344e-014 -3.27498e-014
rhumerus 15.7903 -5.19645 -66.395
rradius 73.9791
rwrist -33.7871
rhand -29.8089 37.4761
rfingers 7.12502
rthumb -3.13289 7.5194
lclavicle 1.07344e-014 -3.27498e-014
lhumerus -19.3206 21.9512 53.6314
lradius 73.0875
lwrist 44.4537
lhand -23.2148 21.2309
lfingers 7.12502
lthumb 3.23562 51.186
rfemur -16.7415 -21.0142 -12.0667
rtibia 44.5669
rfoot -21.9976 -13.387
rtoes -57.5973
lfemur -74.5354 41.3244 -16.1388
ltibia 77.6754
lfoot -14.6342 6.68066
ltoes -5.2364
68
root 21.9582 12.5508 11.4514 192.085 -18.3279 -176.72
lowerback 37.2627 4.72622 1.37285
upperback 13.6398 2.39628 -1.14239
thorax -3.18294 -0.255774 -2.64149
lowerneck -9.85812 8.41553 -12.1952
upperneck -29.4213 10.6381 6.10193
head -8.71421 4.35291 3.88632
rclavicle 4.62174e-014 -9.50191e-014
rhumerus 14.6124 -7.91631 -65.3734
rradius 73.8061
rwrist -34.7175
rhand -30.1957 38.4862
rfingers 7.12502
rthumb -3.50647 8.53528
lclavicle 4.62174e-014 -9.50191e-014
lhumerus -17.2304 21.6359 51.8926
lradius 73.3108
lwrist 45.4696
lhand -23.6045 21.3841
lfingers 7.12502
lthumb 2.85936 51.3446
rfemur -13.2382 -19.9633 -11.9128
rtibia 40.2911
rfoot -17.3017 -17.6355
rtoes -56.9259
lfemur -75.6183 40.7215 -16.9021
ltibia 79.1074
lfoot -14.7165 6.94771
ltoes -4.03608
69
root 21.7091 12.5717 11.3007 192.392 -19.8491 -176.207
lowerback 36.7505 4.92624 0.673901
upperback 13.3461 2.62533 -0.864178
thorax -3.37329 -0.113862 -2.06023
lowerneck -9.48553 7.93541 -12.0068
upperneck -29.0745 10.2313 7.24006
head -8.63493 4.08647 4.26475
rclavicle -1.8487e-014 3.33958e-014
rhumerus 13.058 -10.788 -64.3743
rradius 73.2918
rwrist -35.5603
rhand -31.0354 39.0643
rfingers 7.12502
rthumb -4.3173 9.12835
lclavicle -1.8487e-014 3.33958e-014
lhumerus -14.8115 21.2377 50.2198
lradius 73.4551
lwrist 46.4532
lhand -23.9733 21.249
lfingers 7.12502
lthumb 2.50313 51.214
rfemur -9.3459 -17.9788 -11.5512
rtibia 35.3597
rfoot -12.5307 -19.7235
rtoes -56.1634
lfemur -76.4086 40.1205 -17.3966
ltibia 80.1365
lfoot -15.2954 7.0658
ltoes -4.64669
70
root 21.4656 12.5875 11.1405 192.895 -21.514 -175.786
lowerback 36.0059 5.13946 -0.245435
upperback 13.0606 2.84605 -0.567326
thorax -3.63043 0.0340829 -1.34067
lowerneck -9.1871 7.30092 -12.0512
upperneck -28.5715 9.68347 8.70205
head -8.49302 3.76087 4.80566
rclavicle -2.98177e-015 2.44505e-014
rhumerus 11.0748 -13.5112 -63.0964
rradius 72.594
rwrist -36.6067
rhand -31.4346 39.0391
rfingers 7.12502
rthumb -4.70276 9.11125
lclavicle -2.98177e-015 2.44505e-014
lhumerus -12.3351 20.9393 48.7934
lradius 73.6599
lwrist 47.191
lhand -24.3529 20.9514
lfingers 7.12502
lthumb 2.13653 50.9204
rfemur -5.28889 -15.2551 -11.0072
rtibia 30.1801
rfoot -8.96617 -20.4467
rtoes -56.419
lfemur -77.3289 39.4112 -17.9619
ltibia 80.9947
lfoot -14.4287 6.78083
ltoes -8.82038
71
root 21.2112 12.6119 10.9696 193.476 -23.1989 -175.516
lowerback 35.2771 5.37624 -1.35659
upperback 12.6503 3.05654 -0.233336
thorax -3.90024 0.178638 -0.475627
lowerneck -9.01571 6.70084 -12.0398
upperneck -27.7686 9.18085 10.1248
head -8.21482 3.47403 5.31249
rclavicle 3.18055e-015 -4.96962e-015
rhumerus 8.83717 -15.9903 -61.4679
rradius 71.5695
rwrist -37.7934
rhand -31.5061 38.7167
rfingers 7.12502
rthumb -4.77183 8.79048
lclavicle 3.18055e-015 -4.96962e-015
lhumerus -9.93332 20.6748 47.6172
lradius 73.9508
lwrist 47.5754
lhand -24.6174 20.8741
lfingers 7.12502
lthumb 1.88112 50.8456
rfemur -1.03483 -12.4095 -10.3021
rtibia 24.7164
rfoot -8.66344 -20.5714
rtoes -57.2751
lfemur -77.9949 38.5598 -18.57
ltibia 81.7694
lfoot -14.1132 5.81608
ltoes -10.9003
72
root 20.9414 12.6222 10.7899 193.992 -24.8217 -175.326
lowerback 34.5444 5.60117 -2.36889
upperback 12.3045 3.26332 0.030683
thorax -4.08859 0.322676 0.268672
lowerneck -9.11172 6.01327 -12.2658
upperneck -26.6999 8.60918 11.8148
head -7.80454 3.17685 5.95413
rclavicle -3.77691e-014 4.17448e-014
rhumerus 6.49548 -18.595 -59.8193
rradius 70.2221
rwrist -39.0881
rhand -31.4513 38.196
rfingers 7.12502
rthumb -4.71891 8.26852
lclavicle -3.77691e-014 4.17448e-014
lhumerus -7.21793 20.1876 46.615
lradius 74.1162
lwrist 48.152
lhand -24.961 20.9819
lfingers 7.12502
lthumb 1.54921 50.956
rfemur 3.08389 -10.6516 -9.43256
rtibia 19.2593
rfoot -0.0198554 -22.1358
rtoes -56.9967
lfemur -78.3896 37.6317 -19.0316
ltibia 82.6543
lfoot -14.7153 4.20012
ltoes -9.68106
73
root 20.6667 12.6441 10.6205 194.906 -26.6749 -175.334
lowerback 33.5892 5.63551 -3.37745
upperback 11.9288 3.28017 0.286893
thorax -4.22051 0.392031 1.07444
lowerneck -8.64314 5.24172 -12.4113
upperneck -26.4044 7.79106 13.194
head -7.69892 2.72049 6.49983
rclavicle 3.26007e-014 -1.27222e-014
rhumerus 4.12845 -21.1468 -58.1128
rradius 68.6618
rwrist -40.3634
rhand -31.3523 37.6135
rfingers 7.12502
rthumb -4.62333 7.68395
lclavicle 3.26007e-014 -1.27222e-014
lhumerus -4.40828 19.6047 45.7067
lradius 74.1507
lwrist 48.6352
lhand -25.4699 21.0237
lfingers 7.12502
lthumb 1.05769 51.0008
rfemur 7.25677 -8.71339 -8.61618
rtibia 13.5127
rfoot 0.0583633 -23.9824
rtoes -57.5738
lfemur -79.0499 36.2576 -19.8418
ltibia 83.4116
lfoot -16.0251 3.12672
ltoes -9.01073
74
root 20.3729 12.6824 10.4532 195.655 -28.5506 -175.486
lowerback 33.0206 5.57956 -4.2068
upperback 11.5965 3.17507 0.481546
thorax -4.41738 0.39366 1.75555
lowerneck -8.31592 4.50451 -12.617
upperneck -26.1608 7.01927 14.6304
head -7.58405 2.27683 7.08432
rclavicle -7.91163e-014 -6.89783e-014
rhumerus 1.50628 -23.4174 -56.2538
rradius 67.1883
rwrist -41.616
rhand -31.559 36.9914
rfingers 7.12502
rthumb -4.82294 7.06633
lclavicle -7.91163e-014 -6.89783e-014
lhumerus -1.51935 19.1512 44.7689
lradius 73.8957
lwrist 48.2813
lhand -25.6248 20.7886
lfingers 7.12502
lthumb 0.908159 50.7664
rfemur 11.2331 -8.85412 -8.00683
rtibia 8.33131
rfoot 2.16503 -25.7707
rtoes -56.7285
lfemur -79.099 34.8085 -20.6237
ltibia 83.9146
lfoot -17.3906 3.07169
ltoes -11.8945
